<svg id="Calque_1" data-name="Calque 1" xmlns="http://www.w3.org/2000/svg" viewBox="0 0 84.23 82.89"><title>adster-logo</title><path d="M425.66,383.73c0,3.44-.05,6.87,0,10.31a3,3,0,0,1-1.7,3.08c-2.67,1.43-5.21,3.1-7.89,4.52-1.37.74-2.22,1.67-1.91,3.21,1.22,6-1.2,9.69-6.86,12.12-4.51,1.94-8.55,5-12.89,7.33a3.88,3.88,0,0,1-3.06-.07c-2.15-1-4.07-2.54-6.23-3.54a4.4,4.4,0,0,0-3.27,0c-2.09,1-3.94,2.47-6,3.41a4.49,4.49,0,0,1-3.47,0c-6-3.31-11.94-6.77-17.81-10.32a3.87,3.87,0,0,1-1.51-2.61A41.76,41.76,0,0,1,353,405a3.34,3.34,0,0,0-2.05-3.42c-2.61-1.37-5.11-2.95-7.7-4.37a3,3,0,0,1-1.77-3.05q.11-10.32,0-20.63a3,3,0,0,1,1.81-3c2.54-1.34,5-2.85,7.52-4.2a3.69,3.69,0,0,0,2.21-3.84c-.14-2.39,0-4.79-.06-7.19a3,3,0,0,1,1.75-3c6.06-3.39,12.05-6.91,18.12-10.27a3.28,3.28,0,0,1,2.57,0,26,26,0,0,1,4.77,2.74c2.41,1.81,4.74,1.72,6.92-.13,3.87-3.31,7.39-3.2,11.6-.2,4.4,3.13,9.42,5.37,14.08,8.15A3.45,3.45,0,0,1,414.1,355a57.4,57.4,0,0,1,0,7.42,3.62,3.62,0,0,0,2.11,3.87c2.55,1.31,5,2.87,7.54,4.18a3.05,3.05,0,0,1,1.91,3.2C425.59,377,425.66,380.37,425.66,383.73Zm-43.51-17.87h0c0-4.8.08-9.6-.07-14.4a4.7,4.7,0,0,0-1.43-3.22,29.35,29.35,0,0,0-5.58-3.22,2.75,2.75,0,0,0-2.17.16c-4,2.26-7.84,5-12.06,6.87s-5.81,4.61-5.32,9.22c.44,4.17.8,4.9,5.05,5.71.85.16,2.1,1.25,2.13,2,0,.93-.83,2.54-1.54,2.68a3.88,3.88,0,0,1-3.07-1.32c-2.2-2.67-3.6-3-6.49-1.25a21.79,21.79,0,0,1-3.72,2.16c-3.11,1.15-4.3,3.23-3.77,6.46.27,1.62.36,3.28.52,4.92a28,28,0,0,1,4.52-.53c1,0,2.36.45,2.76,1.15a3.11,3.11,0,0,1-.34,3c-.57.6-1.95.5-3,.54-.41,0-.81-.49-1.24-.68-1.92-.79-3.09,0-3.21,2-.37,6.2-.37,6.21,5,9.38,1,.6,2.09,1.17,3.15,1.74,2.31,1.23,3.89.94,5.55-1.21,1.05-1.35,2.38-1.93,3.71-1a3.33,3.33,0,0,1,1.1,2.8c-.29,1.6-1.53,2.11-3.28,1.87-2.27-.32-3.75,1.17-3.79,3.44a21.36,21.36,0,0,0,.06,4.31,4.21,4.21,0,0,0,1.54,2.62c3.72,2.32,7.88,4,11.3,6.73,4.23,3.32,7.71,2.76,11.6-.29a4.22,4.22,0,0,0,2.05-3.69c-.06-4.4,0-8.8,0-13.19s0-8.48,0-12.72c0-3.24-1.14-3.89-4-2.38-.14.07-.27.24-.41.24-.9,0-2,.26-2.65-.17a3.25,3.25,0,0,1-1-2.44c0-2,1.78-2.65,4.16-1.66,2.94,1.22,3.84.69,3.86-2.4C382.17,375.29,382.15,370.57,382.15,365.86Zm2.79-.2h0c0,4.87,0,9.75,0,14.63,0,2.72,1.07,3.33,3.65,2.24a3.69,3.69,0,0,1,2-.51c.82.21,1.95.73,2.18,1.39a3.42,3.42,0,0,1-.46,2.8c-.46.56-1.68.63-2.57.66-.47,0-.94-.56-1.44-.79-2-.94-3.35-.22-3.36,2-.05,9.19-.06,18.38,0,27.58a3.35,3.35,0,0,0,1.3,2.28,28.57,28.57,0,0,0,5.13,3.05,3.88,3.88,0,0,0,3,0c4.28-2.33,8.29-5.19,12.69-7.22,3.88-1.8,4.89-4.42,4.44-8.33-.3-2.7-1.3-4-4-3.81-1.59.13-2.9-.25-3.13-1.76a3.65,3.65,0,0,1,1.16-3c1.41-1,2.63-.1,3.61,1.2,1.48,1.95,3.22,2.27,5.37,1.11,1.41-.75,2.74-1.67,4.2-2.3,3.35-1.46,4.62-3.79,4.24-7.52s-.87-4.3-4.47-2.77a3.37,3.37,0,0,1-3-.34,3.33,3.33,0,0,1-.54-3c.72-1.82,2.34-1.54,3.87-.92,3.19,1.3,4,.75,4.06-2.65a19.25,19.25,0,0,0-.08-4.3,5.53,5.53,0,0,0-1.8-3c-1.56-1.21-3.46-2-5.14-3-3.56-2.24-4.51-2-7.16,1.26a3.31,3.31,0,0,1-2.94,1,3.2,3.2,0,0,1-1.45-2.73c.17-.83,1.48-1.52,2.41-2.09,1.47-.9,4.22-1.51,4.33-2.49.38-3.12-.21-6.36-.46-9.55,0-.15-.36-.28-.57-.4-3.8-2.21-7.79-4.14-11.34-6.68-4.09-2.93-7.66-3-11.65.05-1.41,1.09-2.26,2-2.23,3.82C385,356.22,384.94,360.94,384.94,365.66Z" transform="translate(-341.47 -341.7)"/><path d="M373.21,368.33c1.47,4.58-.89,7.52-5.17,9.43-2.24,1-3,2.7-2.86,5.18.33,7.25-1.33,6,6.05,9.16a3,3,0,0,1,2.15,3.44,19.11,19.11,0,0,0,0,5.5c.8,3.86-1.34,6.66-3.15,9.53a3.66,3.66,0,0,1-3.05,1.07,2.79,2.79,0,0,1-1.58-2.23c.11-1,1-2.58,1.71-2.68,3-.41,3.32-2.29,3.24-4.64a1.92,1.92,0,0,1,0-.24c1-5.06-.83-8.38-6-9.7-1.63-.42-2.17-1.54-2.1-3.24.13-3-.11-5.92.11-8.86.08-1.1.95-2.16,1.58-3.18a2.29,2.29,0,0,1,1.17-.79c6.2-2.09,5.52-7.16,5.06-12-.07-.74-1.37-1.37-2.11-2-.92-.83-2.14-1.51-2.62-2.54-.21-.45.92-2.05,1.73-2.34,1.52-.56,2.52.3,3.67,1.68C373.43,361.65,373.63,364.67,373.21,368.33Z" transform="translate(-341.47 -341.7)"/><path d="M393.73,398.63c-1.31-4.1,1-6.95,6-8.21a2.78,2.78,0,0,0,2.13-3.29,1.93,1.93,0,0,1,0-.48c.82-4.95-.53-8.7-5.57-10.67-2-.77-2.75-2.42-2.5-4.65a17.43,17.43,0,0,0,0-5.25c-.67-3.3,1.11-5.65,2.82-7.94.57-.76,2.27-1.07,3.35-.91a2.77,2.77,0,0,1,1.54,2.27,3.65,3.65,0,0,1-2.21,2.36c-2.35.33-2.59,1.65-2.85,3.61-.71,5.19.7,9,5.87,11,1.87.72,2.48,2.18,2.36,4.2-.16,2.78-.1,5.59,0,8.38.05,1.47-.31,2.57-1.81,2.93-5.49,1.33-7.19,4.84-6.42,10.21.32,2.26.5,4,3.23,4.49.82.15,1.84,1.82,1.85,2.8a3.1,3.1,0,0,1-2.18,2.18c-1,0-2-1.07-2.92-1.78-.25-.18-.08-.91-.33-1.1C392.84,406.39,394,402.92,393.73,398.63Z" transform="translate(-341.47 -341.7)"/></svg>